<svg width="131" height="4" viewBox="0 0 131 4" fill="none" xmlns="http://www.w3.org/2000/svg">
<path d="M1.93 3.85999C0.87 3.85999 0 2.99999 0 1.92999C0 0.869993 0.86 0 1.93 0C3 0 3.86 0.859993 3.86 1.92999C3.86 2.99999 3 3.85999 1.93 3.85999Z" fill="#D67419"/>
<path d="M20.07 3.85999C19.01 3.85999 18.14 2.99999 18.14 1.92999C18.14 0.869993 19 0 20.07 0C21.14 0 22 0.859993 22 1.92999C22 2.99999 21.13 3.85999 20.07 3.85999Z" fill="#D67419"/>
<path d="M38.2 3.85999C37.14 3.85999 36.27 2.99999 36.27 1.92999C36.27 0.869993 37.13 0 38.2 0C39.26 0 40.13 0.859993 40.13 1.92999C40.13 2.99999 39.27 3.85999 38.2 3.85999Z" fill="#D67419"/>
<path d="M56.34 3.85999C55.28 3.85999 54.41 2.99999 54.41 1.92999C54.41 0.869993 55.27 0 56.34 0C57.4 0 58.27 0.859993 58.27 1.92999C58.27 2.99999 57.4 3.85999 56.34 3.85999Z" fill="#D67419"/>
<path d="M74.48 3.85999C73.42 3.85999 72.55 2.99999 72.55 1.92999C72.55 0.869993 73.41 0 74.48 0C75.54 0 76.41 0.859993 76.41 1.92999C76.4 2.99999 75.54 3.85999 74.48 3.85999Z" fill="#D67419"/>
<path d="M92.61 3.85999C91.55 3.85999 90.68 2.99999 90.68 1.92999C90.68 0.869993 91.54 0 92.61 0C93.67 0 94.54 0.859993 94.54 1.92999C94.54 2.99999 93.67 3.85999 92.61 3.85999Z" fill="#D67419"/>
<path d="M110.75 3.85999C109.69 3.85999 108.82 2.99999 108.82 1.92999C108.82 0.869993 109.68 0 110.75 0C111.81 0 112.68 0.859993 112.68 1.92999C112.67 2.99999 111.81 3.85999 110.75 3.85999Z" fill="#D67419"/>
<path d="M128.88 3.85999C127.82 3.85999 126.95 2.99999 126.95 1.92999C126.95 0.869993 127.81 0 128.88 0C129.94 0 130.81 0.859993 130.81 1.92999C130.81 2.99999 129.95 3.85999 128.88 3.85999Z" fill="#D67419"/>
</svg>
