<svg width="805" height="716" viewBox="0 0 805 716" fill="none" xmlns="http://www.w3.org/2000/svg">
<path d="M300 411.5C300 369.526 334.026 335.5 376 335.5C417.974 335.5 452 369.526 452 411.5C452 453.474 417.974 487.5 376 487.5C353.896 487.5 300 488 300 488C300 488 300 431.37 300 411.5Z" fill="#CCD6DA" fill-opacity="0.57"/>
<circle cx="605" cy="76" r="76" fill="#C6333D"/>
<circle cx="729" cy="187" r="76" fill="#0C9C9D"/>
<path d="M375 260C375 301.974 340.974 336 299 336C257.026 336 223 301.974 223 260C223 218.026 257.026 184 299 184C321.104 184 375 184 375 184C375 184 375 240.13 375 260Z" fill="#C6333D"/>
<path d="M452 412C452 453.974 417.974 488 376 488C334.026 488 300 453.974 300 412C300 370.026 334.026 336 376 336C398.104 336 452 335.5 452 335.5C452 335.5 452 392.13 452 412Z" fill="#0C9C9D"/>
<path d="M452 336C452 377.974 486.026 412 528 412C569.974 412 604 377.974 604 336C604 294.026 569.974 260 528 260C505.896 260 452 260 452 260C452 260 452 316.13 452 336Z" fill="#3779A9"/>
<circle cx="451" cy="183" r="76" fill="#D67419"/>
<circle cx="303" cy="485" r="74" fill="#253467" fill-opacity="0.63"/>
<circle cx="74" cy="642" r="74" fill="#1D3D54"/>
<path d="M300 636C259.131 636 226 602.869 226 562C226 521.131 259.131 488 300 488C300 538 300 572 300 636Z" fill="#50609A" fill-opacity="0.41"/>
<path d="M447 108C447 149.974 481.026 184 523 184C564.974 184 599 149.974 599 108C599 66.0264 564.974 32 523 32C500.896 32 447 32 447 32C447 32 447 88.1302 447 108Z" fill="#1F466D" fill-opacity="0.51"/>
<path d="M452 335C452 376.974 417.974 411 376 411C334.026 411 300 376.974 300 335C300 293.026 334.026 259 376 259C398.104 259 452 259 452 259C452 259 452 315.13 452 335Z" fill="#000C12" fill-opacity="0.2"/>
<circle cx="453" cy="335" r="76" fill="#24628B" fill-opacity="0.45"/>
<circle cx="582" cy="152" r="40" fill="#90999E" fill-opacity="0.5"/>
<circle cx="529" cy="259" r="20" fill="#8ECAE6" fill-opacity="0.64"/>
<circle cx="345" cy="102" r="10" fill="#92999F" fill-opacity="0.82"/>
<circle cx="170" cy="562" r="10" fill="#3C89AD"/>
<circle cx="375" cy="183" r="40" fill="#3779A9" fill-opacity="0.81"/>
<circle cx="74" cy="568" r="40" fill="#0C9C9D" fill-opacity="0.39"/>
</svg>
