<svg width="89" height="88" viewBox="0 0 89 88" fill="#ABC5E4" xmlns="http://www.w3.org/2000/svg">
<path d="M5.31126 34.4881C4.48461 35.3441 3.11997 35.3608 2.27115 34.5411C1.41513 33.7145 1.39838 32.3498 2.21808 31.501C3.03778 30.6522 4.40935 30.6283 5.25817 31.448C6.11418 32.2746 6.1379 33.632 5.31126 34.4881Z" />
<path d="M18.5974 47.3184C17.7708 48.1744 16.4061 48.1911 15.5573 47.3714C14.7013 46.5448 14.6846 45.1802 15.5043 44.3313C16.324 43.4825 17.6955 43.4586 18.5443 44.2783C19.3932 45.098 19.4241 46.4624 18.5974 47.3184Z" />
<path d="M32.6643 32.7517C31.8376 33.6077 30.473 33.6245 29.6242 32.8048C28.7681 31.9781 28.7514 30.6135 29.5711 29.7647C30.3978 28.9087 31.7624 28.8919 32.6112 29.7116C33.4669 30.5241 33.4909 31.8957 32.6643 32.7517Z" />
<path d="M31.8837 60.1488C31.057 61.0048 29.6924 61.0215 28.8435 60.2018C27.9875 59.3752 27.9708 58.0105 28.7905 57.1617C29.6102 56.3129 30.9817 56.289 31.8306 57.1087C32.6794 57.9284 32.7103 59.2927 31.8837 60.1488Z" />
<path d="M45.9505 45.5821C45.1239 46.4381 43.7592 46.4549 42.9104 45.6352C42.0544 44.8085 42.0376 43.4439 42.8573 42.5951C43.684 41.739 45.0486 41.7223 45.8974 42.542C46.7532 43.3545 46.7772 44.7261 45.9505 45.5821Z" />
<path d="M60.0173 31.0155C59.1907 31.8715 57.826 31.8883 56.9772 31.0686C56.1212 30.2419 56.1045 28.8773 56.9242 28.0285C57.7508 27.1725 59.1154 27.1557 59.9642 27.9754C60.82 28.7879 60.844 30.1595 60.0173 31.0155Z" />
<path d="M45.1627 72.9721C44.336 73.8281 42.9714 73.8449 42.1226 73.0252C41.2666 72.1985 41.2498 70.8339 42.0695 69.9851C42.8892 69.1363 44.2608 69.1123 45.1096 69.932C45.9656 70.7587 45.9893 72.1161 45.1627 72.9721Z" />
<path d="M59.2295 58.4055C58.4029 59.2615 57.0382 59.2782 56.1894 58.4585C55.3334 57.6319 55.3167 56.2672 56.1364 55.4184C56.963 54.5624 58.3276 54.5457 59.1764 55.3654C60.0394 56.1848 60.0562 57.5494 59.2295 58.4055Z" />
<path d="M58.4489 85.8024C59.2737 84.9483 59.25 83.5872 58.3958 82.7624C57.5417 81.9375 56.1806 81.9612 55.3557 82.8154C54.5309 83.6696 54.5546 85.0307 55.4088 85.8555C56.2629 86.6804 57.624 86.6566 58.4489 85.8024Z" />
</svg>
