<svg width="47" height="2" viewBox="0 0 47 2" fill="white" xmlns="http://www.w3.org/2000/svg">
<path d="M1.17869 3.86238e-05C0.80594 3.86238e-05 0.5 0.302459 0.5 0.67873C0.5 1.05148 0.802423 1.35742 1.17869 1.35742C1.55497 1.35742 1.85739 1.055 1.85739 0.67873C1.85739 0.302459 1.55497 3.86238e-05 1.17869 3.86238e-05Z" />
<path d="M7.55771 3.86238e-05C7.18495 3.86238e-05 6.87901 0.302459 6.87901 0.67873C6.87901 1.05148 7.18144 1.35742 7.55771 1.35742C7.93398 1.35742 8.2364 1.055 8.2364 0.67873C8.2364 0.302459 7.93046 3.86238e-05 7.55771 3.86238e-05Z"/>
<path d="M13.9332 3.86238e-05C13.5605 3.86238e-05 13.2545 0.302459 13.2545 0.67873C13.2545 1.05148 13.557 1.35742 13.9332 1.35742C14.306 1.35742 14.6119 1.055 14.6119 0.67873C14.6119 0.302459 14.3095 3.86238e-05 13.9332 3.86238e-05Z"/>
<path d="M20.3122 3.86238e-05C19.9395 3.86238e-05 19.6335 0.302459 19.6335 0.67873C19.6335 1.05148 19.936 1.35742 20.3122 1.35742C20.685 1.35742 20.9909 1.055 20.9909 0.67873C20.9909 0.302459 20.685 3.86238e-05 20.3122 3.86238e-05Z" />
<path d="M26.6913 3.86238e-05C26.3185 3.86238e-05 26.0126 0.302459 26.0126 0.67873C26.0126 1.05148 26.315 1.35742 26.6913 1.35742C27.064 1.35742 27.3699 1.055 27.3699 0.67873C27.3664 0.302459 27.064 3.86238e-05 26.6913 3.86238e-05Z" />
<path d="M33.0668 3.86238e-05C32.694 3.86238e-05 32.3881 0.302459 32.3881 0.67873C32.3881 1.05148 32.6905 1.35742 33.0668 1.35742C33.4395 1.35742 33.7455 1.055 33.7455 0.67873C33.7455 0.302459 33.4395 3.86238e-05 33.0668 3.86238e-05Z" />
<path d="M39.4458 3.86238e-05C39.073 3.86238e-05 38.7671 0.302459 38.7671 0.67873C38.7671 1.05148 39.0695 1.35742 39.4458 1.35742C39.8185 1.35742 40.1245 1.055 40.1245 0.67873C40.121 0.302459 39.8185 3.86238e-05 39.4458 3.86238e-05Z" />
<path d="M45.8213 3.86238e-05C45.4485 3.86238e-05 45.1426 0.302459 45.1426 0.67873C45.1426 1.05148 45.445 1.35742 45.8213 1.35742C46.194 1.35742 46.5 1.055 46.5 0.67873C46.5 0.302459 46.1976 3.86238e-05 45.8213 3.86238e-05Z" />
</svg>
